# xmcd CD database file
#
# Track frame offsets:
#	150
#	24132
#	41760
#
# Disc length: 875 seconds
#
# Revision: 0
# Processed by: cddbd v1.5PL3 Copyright (c) Steve Scherf et al.
# Submitted via: CDex 1.50
#
DISCID=18036903
DTITLE=PENICILLIN - ウルトライダー
DYEAR=1900
DGENRE=Rock
TTITLE0=ウルトライダー
TTITLE1=理想の舌？-Tongue my love Mix-
TTITLE2=ウルトライダー（NO VOCAL EDITION)
EXTD=
EXTT0=
EXTT1=
EXTT2=
PLAYORDER=
